#!OML:ASF G:\JayActor3\Patient Classification 1\Patient 1\Session 5\male.ASF
:FULLY-SPECIFIED
:DEGREES
445
root -16.0344 16.4366 -6.39017 652.965 -101.104 -654.587
lowerback -1.5525 1.97426 12.1324
upperback 1.5537 2.25626 0.281168
thorax 2.98204 1.3515 -6.40726
lowerneck -9.4318 -0.843126 1.33931
upperneck 6.24162 -1.6431 3.64594
head 3.74449 -0.623679 0.871107
rclavicle 2.75441e-014 1.11319e-014
rhumerus -25.7656 6.80227 -92.4346
rradius 33.5406
rwrist 1.08461
rhand -18.7979 -4.89569
rfingers 7.12502
rthumb 7.50024 -34.7427
lclavicle 2.75441e-014 1.11319e-014
lhumerus -38.7667 22.9362 69.289
lradius 12.338
lwrist -6.97007
lhand -15.4125 14.1465
lfingers 7.12502
lthumb 10.7669 43.8506
rfemur 20.8672 -0.918271 33.6506
rtibia 18.7323
rfoot -14.0517 -4.58087
rtoes -10.8209
lfemur -28.7253 7.93198 -12.2841
ltibia 24.1895
lfoot -12.3941 9.33874
ltoes -12.9726
446
root -16.2433 16.4368 -6.37495 654.219 -101.18 -655.924
lowerback -1.63345 1.99765 12.0555
upperback 1.49153 2.28477 0.253269
thorax 2.96508 1.36145 -6.39089
lowerneck -9.47271 -0.80299 1.40105
upperneck 6.58058 -1.61314 3.64718
head 3.87175 -0.601078 0.864122
rclavicle 4.56584e-015 1.27222e-014
rhumerus -26.2105 6.58175 -92.5952
rradius 33.4013
rwrist 1.32729
rhand -18.6969 -4.83809
rfingers 7.12502
rthumb 7.59768 -34.6816
lclavicle 4.56584e-015 1.27222e-014
lhumerus -38.9228 23.4606 68.8082
lradius 12.1016
lwrist -7.56839
lhand -15.2934 14.2873
lfingers 7.12502
lthumb 10.8818 43.9853
rfemur 20.9185 -0.961706 33.2904
rtibia 19.8848
rfoot -12.9893 -4.42105
rtoes -10.7659
lfemur -28.5169 8.37178 -12.3288
ltibia 25.1761
lfoot -11.6008 9.30581
ltoes -11.9521
447
root -16.451 16.4406 -6.3609 655.603 -101.137 -657.45
lowerback -1.64041 2.00049 11.8246
upperback 1.43962 2.30178 0.198343
thorax 2.90841 1.36181 -6.31979
lowerneck -9.52716 -0.767707 1.45687
upperneck 6.93056 -1.59023 3.64854
head 4.00651 -0.58176 0.857943
rclavicle 5.09386e-015 -5.56597e-015
rhumerus -26.6504 6.28567 -92.7337
rradius 33.2062
rwrist 1.59824
rhand -18.6458 -4.7896
rfingers 7.12502
rthumb 7.64704 -34.6313
lclavicle 5.09386e-015 -5.56597e-015
lhumerus -39.0437 23.8273 68.4589
lradius 11.944
lwrist -7.95656
lhand -15.2079 14.4052
lfingers 7.12502
lthumb 10.9642 44.0989
rfemur 20.8096 -1.06435 32.7788
rtibia 21.3668
rfoot -11.8167 -4.37304
rtoes -10.4446
lfemur -28.2252 8.84223 -12.5037
ltibia 26.0719
lfoot -10.5441 9.09538
ltoes -11.1009
448
root -16.6555 16.4469 -6.34788 657.116 -100.956 -659.171
lowerback -1.55145 1.98009 11.4329
upperback 1.40378 2.30589 0.107332
thorax 2.80576 1.35205 -6.20025
lowerneck -9.61859 -0.742375 1.51321
upperneck 7.29917 -1.58259 3.64504
head 4.15634 -0.569452 0.849217
rclavicle -1.26772e-014 -1.27222e-014
rhumerus -27.0691 5.91116 -92.8482
rradius 32.9477
rwrist 1.88424
rhand -18.6588 -4.75428
rfingers 7.12502
rthumb 7.63452 -34.5965
lclavicle -1.26772e-014 -1.27222e-014
lhumerus -39.0996 24.0535 68.2371
lradius 11.8488
lwrist -8.17743
lhand -15.1569 14.5072
lfingers 7.12502
lthumb 11.0134 44.1983
rfemur 20.5145 -1.23802 32.1024
rtibia 23.2227
rfoot -10.5521 -4.47726
rtoes -9.80442
lfemur -27.8288 9.3554 -12.8416
ltibia 26.8737
lfoot -9.33241 8.68923
ltoes -10.3733
449
root -16.8553 16.4547 -6.33534 658.745 -100.652 -661.068
lowerback -1.37451 1.93445 10.9142
upperback 1.39338 2.28956 -0.0216072
thorax 2.67222 1.33041 -6.05273
lowerneck -9.74968 -0.719806 1.56808
upperneck 7.6731 -1.58044 3.64233
head 4.31722 -0.559301 0.840728
rclavicle 2.68452e-014 7.15625e-015
rhumerus -27.4442 5.45788 -92.9385
rradius 32.6203
rwrist 2.18635
rhand -18.7095 -4.72538
rfingers 7.12502
rthumb 7.58558 -34.5694
lclavicle 2.68452e-014 7.15625e-015
lhumerus -39.0646 24.1646 68.1368
lradius 11.8061
lwrist -8.25467
lhand -15.1423 14.5892
lfingers 7.12502
lthumb 11.0275 44.2796
rfemur 20.0287 -1.49684 31.273
rtibia 25.4457
rfoot -9.17552 -4.75613
rtoes -8.83279
lfemur -27.323 9.88612 -13.3312
ltibia 27.5898
lfoot -8.13931 8.13103
ltoes -9.578
450
root -17.0494 16.4633 -6.3228 660.454 -100.258 -663.082
lowerback -1.12071 1.86885 10.316
upperback 1.39288 2.25521 -0.182362
thorax 2.50068 1.29793 -5.8966
lowerneck -9.90521 -0.699768 1.6279
upperneck 8.05861 -1.58409 3.63798
head 4.48845 -0.551433 0.830504
rclavicle 2.52519e-015 4.77083e-015
rhumerus -27.7895 4.9248 -93.0026
rradius 32.23
rwrist 2.50508
rhand -18.7834 -4.70978
rfingers 7.12502
rthumb 7.51421 -34.5563
lclavicle 2.52519e-015 4.77083e-015
lhumerus -38.9398 24.0738 68.2066
lradius 11.8421
lwrist -8.10486
lhand -15.0927 14.7651
lfingers 7.12502
lthumb 11.0753 44.4528
rfemur 19.3455 -1.83216 30.3337
rtibia 28.0034
rfoot -7.69696 -5.21778
rtoes -7.58408
lfemur -26.7305 10.3876 -13.9295
ltibia 28.2177
lfoot -7.05735 7.5087
ltoes -8.69942
451
root -17.2375 16.4732 -6.31009 662.234 -99.8134 -665.169
lowerback -0.82933 1.78885 9.6869
upperback 1.39776 2.20192 -0.363143
thorax 2.31074 1.25563 -5.74494
lowerneck -10.0324 -0.673582 1.75085
upperneck 8.78016 -1.59656 3.65348
head 4.28912 -0.533125 0.73281
rclavicle -3.57378e-014 -3.49861e-014
rhumerus -28.1021 4.31116 -93.0349
rradius 31.786
rwrist 2.84141
rhand -18.8564 -4.69424
rfingers 7.12502
rthumb 7.44377 -34.5433
lclavicle -3.57378e-014 -3.49861e-014
lhumerus -38.7239 23.8075 68.4322
lradius 11.9557
lwrist -7.77407
lhand -14.9773 15.0736
lfingers 7.12502
lthumb 11.1866 44.7554
rfemur 18.4602 -2.20466 29.3488
rtibia 30.841
rfoot -6.13107 -5.87906
rtoes -6.14305
lfemur -26.0805 10.7751 -14.5719
ltibia 28.7471
lfoot -6.23046 6.92479
ltoes -7.54348
452
root -17.4201 16.4849 -6.29757 664.189 -99.3377 -667.409
lowerback -0.523336 1.70107 9.02633
upperback 1.39733 2.13507 -0.554822
thorax 2.10519 1.20589 -5.58664
lowerneck -10.1945 -0.64637 1.82635
upperneck 9.18652 -1.59171 3.6212
head 4.44014 -0.521015 0.710341
rclavicle -1.82012e-015 3.97569e-015
rhumerus -28.3909 3.62106 -93.0276
rradius 31.3049
rwrist 3.20756
rhand -18.8894 -4.69708
rfingers 7.12502
rthumb 7.41194 -34.5472
lclavicle -1.82012e-015 3.97569e-015
lhumerus -38.4246 23.3178 68.8445
lradius 12.1541
lwrist -7.18616
lhand -14.8345 15.4727
lfingers 7.12502
lthumb 11.3243 45.147
rfemur 17.376 -2.55912 28.3556
rtibia 33.9026
rfoot -4.52579 -6.73656
rtoes -4.40603
lfemur -25.3887 10.9792 -15.2308
ltibia 29.1547
lfoot -5.66475 6.49417
ltoes -6.16441
453
root -17.5978 16.4992 -6.28576 666.506 -98.8419 -669.968
lowerback -0.229216 1.61523 8.32013
upperback 1.38781 2.06446 -0.75163
thorax 1.89623 1.15392 -5.40631
lowerneck -10.3625 -0.613601 1.90814
upperneck 9.59871 -1.578 3.56332
head 4.59392 -0.505594 0.679584
rclavicle 3.97569e-015 -1.98785e-014
rhumerus -28.6601 2.87019 -92.9734
rradius 30.8023
rwrist 3.60283
rhand -18.8767 -4.73769
rfingers 7.12502
rthumb 7.42417 -34.5874
lclavicle 3.97569e-015 -1.98785e-014
lhumerus -38.0623 22.6644 69.3978
lradius 12.4253
lwrist -6.42308
lhand -14.6672 15.9225
lfingers 7.12502
lthumb 11.4857 45.5878
rfemur 16.1046 -2.84833 27.3751
rtibia 37.127
rfoot -2.91916 -7.77651
rtoes -2.32237
lfemur -24.6629 10.9731 -15.9024
ltibia 29.4195
lfoot -5.32145 6.28749
ltoes -4.56192
454
root -17.7722 16.5162 -6.27508 669.366 -98.3408 -673.024
lowerback 0.0315093 1.53837 7.55653
upperback 1.36817 1.99737 -0.947402
thorax 1.69561 1.10375 -5.19004
lowerneck -10.5217 -0.575483 1.99447
upperneck 10.0042 -1.55324 3.47326
head 4.74409 -0.486759 0.638968
rclavicle 5.889e-015 -7.15625e-015
rhumerus -28.9208 2.07055 -92.8701
rradius 30.2924
rwrist 4.00464
rhand -18.826 -4.79695
rfingers 7.12502
rthumb 7.47309 -34.6449
lclavicle 5.889e-015 -7.15625e-015
lhumerus -37.6482 21.8553 70.0863
lradius 12.7712
lwrist -5.47726
lhand -14.5288 16.4169
lfingers 7.12502
lthumb 11.6192 46.0747
rfemur 14.6681 -3.03834 26.4179
rtibia 40.4489
rfoot -1.31568 -8.97617
rtoes 0.250221
lfemur -23.8973 10.783 -16.5931
ltibia 29.5329
lfoot -5.13723 6.31023
ltoes -2.87439
455
root -17.9442 16.5353 -6.26525 672.856 -97.8616 -676.666
lowerback 0.25017 1.47299 6.75164
upperback 1.34228 1.93639 -1.1336
thorax 1.5131 1.05741 -4.93783
lowerneck -10.6725 -0.530154 2.07497
upperneck 10.4023 -1.5131 3.3533
head 4.89061 -0.462789 0.591178
rclavicle 1.83006e-014 -1.51076e-014
rhumerus -29.1803 1.23595 -92.7139
rradius 29.7909
rwrist 4.40634
rhand -18.731 -4.87278
rfingers 7.12502
rthumb 7.56483 -34.7175
lclavicle 1.83006e-014 -1.51076e-014
lhumerus -37.1994 20.9698 70.8574
lradius 13.1719
lwrist -4.42832
lhand -14.4531 16.9273
lfingers 7.12502
lthumb 11.6922 46.581
rfemur 13.1054 -3.13538 25.4914
rtibia 43.7975
rfoot 0.305684 -10.3128
rtoes 3.15415
lfemur -23.0893 10.4664 -17.2989
ltibia 29.5082
lfoot -5.04915 6.51963
ltoes -1.425
456
root -18.1146 16.5556 -6.25555 676.919 -97.4381 -680.853
lowerback 0.43619 1.42174 5.94727
upperback 1.31706 1.88619 -1.3064
thorax 1.35247 1.01799 -4.66981
lowerneck -10.8348 -0.480738 2.1526
upperneck 10.7962 -1.46277 3.20476
head 5.03783 -0.435936 0.535714
rclavicle 2.58296e-014 9.54166e-015
rhumerus -29.4328 0.378041 -92.5119
rradius 29.3034
rwrist 4.78676
rhand -18.6262 -4.9516
rfingers 7.12502
rthumb 7.66599 -34.7927
lclavicle 2.58296e-014 9.54166e-015
lhumerus -36.71 20.0148 71.7008
lradius 13.6277
lwrist -3.29482
lhand -14.4414 17.517
lfingers 7.12502
lthumb 11.7035 47.1701
rfemur 11.4619 -3.14539 24.6191
rtibia 47.1026
rfoot 1.89637 -11.7834
rtoes 5.90471
lfemur -22.2454 10.1045 -18.0036
ltibia 29.3818
lfoot -5.07742 6.84904
ltoes -0.303895
457
root -18.2838 16.5763 -6.24508 681.303 -97.1026 -685.345
lowerback 0.589349 1.38212 5.20248
upperback 1.30521 1.84426 -1.46143
thorax 1.22818 0.985362 -4.41507
lowerneck -11.0053 -0.427438 2.22624
upperneck 11.1733 -1.40261 3.03668
head 5.18147 -0.406252 0.475541
rclavicle -1.77664e-014 1.59028e-015
rhumerus -29.6684 -0.47546 -92.2805
rradius 28.8278
rwrist 5.12362
rhand -18.54 -5.02219
rfingers 7.12502
rthumb 7.74913 -34.8602
lclavicle -1.77664e-014 1.59028e-015
lhumerus -36.173 19.0586 72.5658
lradius 14.1147
lwrist -2.15469
lhand -14.5095 18.1616
lfingers 7.12502
lthumb 11.6378 47.8184
rfemur 9.78321 -3.09023 23.8266
rtibia 50.3025
rfoot 3.33495 -13.2912
rtoes 8.16416
lfemur -21.3751 9.76163 -18.6732
ltibia 29.2022
lfoot -5.24184 7.22715
ltoes 0.435811
458
root -18.4511 16.5957 -6.2332 685.616 -96.8811 -689.763
lowerback 0.721708 1.3525 4.57176
upperback 1.30992 1.8107 -1.59295
thorax 1.13785 0.95972 -4.19905
lowerneck -11.1756 -0.369563 2.30189
upperneck 11.5235 -1.33251 2.85409
head 5.31701 -0.37349 0.411278
rclavicle -1.39646e-014 1.66979e-014
rhumerus -29.8825 -1.30734 -92.0333
rradius 28.3628
rwrist 5.41883
rhand -18.4995 -5.08315
rfingers 7.12502
rthumb 7.78822 -34.9197
lclavicle -1.39646e-014 1.66979e-014
lhumerus -35.5934 18.0629 73.459
lradius 14.6434
lwrist -0.96284
lhand -14.6071 18.9534
lfingers 7.12502
lthumb 11.5437 48.6155
rfemur 8.10823 -2.99097 23.1484
rtibia 53.3534
rfoot 4.45911 -14.6743
rtoes 9.71697
lfemur -20.4973 9.49985 -19.2693
ltibia 29.0169
lfoot -5.5226 7.5915
ltoes 0.648166
459
root -18.6161 16.6134 -6.21982 689.477 -96.7855 -693.728
lowerback 0.836804 1.33231 4.08836
upperback 1.32882 1.78668 -1.69497
thorax 1.07747 0.94148 -4.03469
lowerneck -11.3233 -0.306366 2.38101
upperneck 11.8385 -1.25112 2.66011
head 5.43809 -0.33712 0.343809
rclavicle -2.51711e-014 7.95139e-015
rhumerus -30.0734 -2.07449 -91.7875
rradius 27.8974
rwrist 5.65304
rhand -18.5166 -5.13554
rfingers 7.12502
rthumb 7.77174 -34.9727
lclavicle -2.51711e-014 7.95139e-015
lhumerus -34.9817 17.0715 74.3405
lradius 15.1995
lwrist 0.201468
lhand -14.8155 19.7475
lfingers 7.12502
lthumb 11.3427 49.4208
rfemur 6.45339 -2.84404 22.6209
rtibia 56.2275
rfoot 5.1434 -15.8024
rtoes 10.5619
lfemur -19.6279 9.34258 -19.7565
ltibia 28.8591
lfoot -5.91808 7.91413
ltoes 0.414537
